# xmcd
# Track frame offsets:
# 150
# 13047
# 28993
# 48252
# 61747
# 78316
# 96209
# 110564
# 127244
# 143186
# 161252
# 178628
# 196232
#
# Disc length: 3086 seconds
# Revision: 0
# Processed by: cddbd v1.5.2PL0 Copyright (c) Steve Scherf et al.
# Submitted via: VisiTrax 2.9.10.228 - For more info visit www.synapsa.com
#
DISCID=ac0c0c0d
DTITLE=Ann Tayler - Let your momma go*
DYEAR=2008
DGENRE=
TTITLE0=Let your momma go
TTITLE1=Still hold on
TTITLE2=Always in my heart
TTITLE3=You got away
TTITLE4=Rock you
TTITLE5=The greatest gift of all
TTITLE6=The prayer
TTITLE7=Heartache
TTITLE8=Coming out of the light
TTITLE9=Runaway
TTITLE10=Dot let go
TTITLE11=Chance
TTITLE12=Like the first time
EXTD=
EXTT0=
EXTT1=
EXTT2=
EXTT3=
EXTT4=
EXTT5=
EXTT6=
EXTT7=
EXTT8=
EXTT9=
EXTT10=
EXTT11=
EXTT12=
PLAYORDER=
